<svg class="IconBritainFlag" width="64" height="64" viewBox="0 0 64 64" fill="none" xmlns="http://www.w3.org/2000/svg">
  <g clip-path="url(#clip0_1339_2084)">
    <path
      d="M38.0001 54H54.0001C55.9771 54 57.6571 53.554 59.0521 52.777L38.0001 40.219V54ZM63.6601 46.21C63.8881 45.193 64.0041 44.116 64.0041 42.999V37.999H49.8941L63.6561 46.21M0.350119 17.759C0.113122 18.8229 -0.00427238 19.91 0.000118758 21V26H14.1641L0.350119 17.759ZM26.0001 10H10.0001C8.03712 10 6.36812 10.44 4.97912 11.206L26.0001 23.746V10ZM5.04312 52.826C6.41912 53.57 8.06612 54 10.0001 54H26.0001V40.324L5.04312 52.826ZM0.000118758 38V43C0.000118758 44.151 0.122119 45.26 0.363119 46.303L14.2821 38H0.000118758ZM59.1151 11.255C57.7091 10.457 56.0061 10 54.0001 10H38.0001V23.851L59.1151 11.255V11.255ZM64.0001 26V21C64.0001 19.906 63.8871 18.851 63.6681 17.853L50.0121 26H64.0001Z"
      fill="#2E3192"
    />
    <path
      d="M50.012 26L63.668 17.853C63.042 14.989 61.518 12.618 59.115 11.255L38 23.851V10H36V28H64V26H50.012ZM0 36V38H14.282L0.363 46.303C1.024 49.158 2.594 51.502 5.043 52.826L26 40.324V54H28V36H0ZM64 36H36V54H38V40.219L59.052 52.778C61.473 51.43 63.016 49.072 63.656 46.212L49.894 38H64V36ZM26 10V23.746L4.979 11.206C2.549 12.546 0.996 14.9 0.349 17.759L14.164 26H0V28H28V10H26Z"
      fill="#E6E7E8"
    />
    <path d="M36 28V10H28V28H0V36H28V54H36V36H64V28H36Z" fill="#BE1E2D" />
    <path
      d="M21.9382 26.0001L1.8882 14.0311C1.4572 14.6711 1.1112 15.3751 0.825195 16.1251L17.3722 26.0001H21.9352M63.0902 48.0901L46.2772 38.0001H41.6212L61.9342 50.2191C62.4052 49.5609 62.7935 48.8472 63.0902 48.0941M60.7192 12.3911L37.9692 26.0001L42.5882 26.0031L62.2192 14.2501C61.7812 13.4531 61.3192 12.9391 60.7192 12.3911M1.8132 49.8751C2.26303 50.5602 2.80437 51.1806 3.4222 51.7191L26.0632 38.0001H21.5002L1.8132 49.8751Z"
      fill="#BE1E2D"
    />
  </g>
  <defs>
    <clipPath id="clip0_1339_2084">
      <rect width="64" height="64" fill="white" />
    </clipPath>
  </defs>
</svg>