<svg width="211" height="346" viewBox="0 0 211 346" fill="none" xmlns="http://www.w3.org/2000/svg">
<path d="M127.166 124.573C128.43 128.222 135.144 136.538 145.804 140.193L180.297 147.691C180.297 146.887 180.326 146.089 180.367 145.294C183.855 146.849 189.2 145.881 190.927 146.174L180.42 144.549C180.925 137.131 183.01 130.047 183.298 122.769C183.336 121.798 150.06 115.052 146.265 113.471C144.581 112.77 139.776 101.517 136.963 93.785L148.309 87.006L143.85 78.8162L157.344 70.3095C159.532 68.6648 161.619 66.8889 163.592 64.9914L170.717 66.549C170.74 66.549 172.31 66.681 172.5 66.681C174.926 66.681 175.548 64.7948 175.95 62.6652L179.969 33.6252C180.494 28.3452 181.491 26.066 176.534 25.5586L162.298 23.2383C159.162 22.857 158.467 26.9548 158.485 26.9578L155.933 43.1263C152.53 42.8946 147.159 44.8276 146.001 48.3682C144.742 52.2226 144.534 54.094 144.534 58.233L136.08 64.5866L135.493 63.5071L131.008 66.4404C127.116 50.5212 116.268 59.3594 112.364 62.9204C113.514 58.2271 115.06 52.5276 115.06 50.6004C115.06 50.3423 126.74 47.5263 126.611 40.8002C126.394 29.4071 122.83 21.0588 118.307 16.5415C122.437 13.2239 125.315 9.5015 124.561 5.7439C122.507 -4.44944 104.18 4.8199 98.592 14.2799C96.7792 17.3452 95.82 25.7199 98.9998 27.6442C98.7296 29.5771 98.5739 31.5243 98.5334 33.4756C98.372 39.4684 97.9467 47.5351 97.272 51.149C90.6134 47.0423 80.4758 49.1807 72.3651 64.1026C74.3744 60.6618 49.0744 40.5538 31.8528 71.2247C31.3982 72.0402 27.884 77.4932 23.5134 84.2516C15.9718 95.9146 5.87231 111.47 4.49364 113.834C-3.64049 127.771 2.41097 135.365 12.8331 135.597L44.2462 136.298C41.1544 145.142 39.0835 151.935 39.1363 154.173L43.2752 154.223C41.2512 162.07 41.5152 169.55 42.844 176.27C44.915 186.651 49.5907 195.214 52.4918 200.514L52.439 200.549H52.5123C52.9024 201.262 53.2632 201.916 53.5771 202.506L53.5976 202.849L52.439 200.549L20.9408 291.673C18.8435 296.211 9.18991 308.833 7.93151 313.008C4.70484 312.148 2.41391 320.54 6.38271 321.347C12.4518 322.585 8.23364 319.766 9.7883 324.735C10.3251 326.454 18.1366 325.639 17.5939 325.75C14.8395 333.705 25.5139 330.329 25.2968 331.08C22.7184 340.467 34.6072 334.245 33.6686 336.21C31.2427 341.285 37.5376 341.763 38.884 341.197C44.5043 338.877 40.4035 342.573 42.671 343.725C50.6438 347.773 53.2456 341.69 53.4304 341.646C54.419 346.471 65.636 344.054 62.735 336.6C65.4718 320.584 49.5027 321.875 48.6051 320.843C46.2174 318.097 43.6771 310.849 46.147 303.345L44.8475 302.759L73.0075 241.329L71.4382 238.24H71.5232L106.597 308.153C106.271 308.54 106.081 309.209 107.184 310.822C110.39 319.968 110.513 329.907 113.156 333.702C112.276 334.532 113.059 341.916 114.233 342.168C118.524 343.107 119.551 336.841 120.742 340.508C121.402 342.538 124.787 340.643 125.728 339.845C128.729 337.319 127.38 336.055 128.99 337.46C133.334 341.25 136.183 334.403 136.227 334.386C139.04 335.952 136.846 336.647 141.847 335.735C146.247 334.931 147.491 331.08 147.743 331.414C149.638 333.908 154.035 333.036 155.293 330.828C156.974 327.853 155.945 328.851 156.66 329.132C159.594 330.285 159.887 330.121 162.685 328.501C164.043 327.718 164.789 325.483 164.865 325.457C165.264 326.557 168.147 326.809 169.118 326.565C170.223 326.298 171.205 325.664 171.903 324.766C172.6 323.868 172.972 322.76 172.958 321.623L172.031 318.434C172.808 317.554 164.962 303.354 150.679 306.701C136.576 310.01 135.162 302.609 132.812 301.025L120.111 261.334L93.2827 177.455C96.1901 177.423 99.0923 177.203 101.971 176.795C101.989 180.315 102.006 183.774 102.006 187.062V176.795C104.729 176.433 107.392 175.713 109.926 174.654L102.006 174.845V160.647C104.74 160.721 107.515 160.765 110.358 160.765L102.006 160.536V154.933L117.201 155.115C117.219 155.115 125.849 121.25 130.093 97.8916L132.903 96.2138L127.166 124.573ZM155.475 45.998L155.331 46.9132C154.721 47.8161 154.034 48.6649 153.278 49.4506C152.914 49.8172 152.48 50.5623 151.935 50.75C152.111 50.5564 154.038 48.0484 155.475 45.998ZM53.5976 202.538C53.7971 202.914 53.9819 203.266 54.1432 203.588L61.4766 218.232H61.3416L53.5888 202.855C53.6006 202.747 53.5976 202.644 53.5976 202.538ZM62.691 336.691C62.2891 337.175 60.9134 337.354 59.2414 337.387C61.0982 337.19 62.3888 336.908 62.6763 336.691H62.691ZM71.1302 237.589L61.6144 218.716H61.7494L71.2182 237.586L71.1302 237.589ZM101.968 160.53L90.5312 160.213C94.2859 160.372 98.0758 160.53 101.954 160.633C101.918 165.22 101.936 170.052 101.954 174.833L92.5112 175.059L92.2003 174.091L77.8915 167.72L77.4867 159.855C77.3371 159.832 77.2726 162.765 77.2872 167.45L60.1595 159.823C63.0078 159.691 65.7974 159.627 68.5488 159.612L59.1035 159.354L47.6635 154.259L102.027 154.933C101.992 156.731 101.968 158.609 101.954 160.53H101.968Z" fill="white"/>
<path d="M199.927 157.456L201.165 150.123L196.008 150.302L191.332 147.104L185.876 146.791L185.395 154.711C186.393 158.301 196.947 159.333 199.927 157.456Z" fill="white"/>
<path d="M186.938 109.587L185.765 114.644L183.154 118.575L186.087 118.982L186.137 126.131C185.474 125.961 184.539 125.75 183.104 125.497L188.912 131.173L192.94 138.527C192.453 139.407 192.423 140.566 193.013 141.795C193.207 142.197 190.461 143.96 191.546 146.315C192.03 147.359 192.984 147.588 196.24 149.301C198.953 150.736 206.014 149.756 205.708 145.465C205.644 144.538 206.072 143.889 206.588 143.194C206.826 142.961 207.028 142.696 207.19 142.405C207.894 141.466 208.28 140.326 208.29 139.152C208.292 137.964 208.49 136.785 208.876 135.661C208.968 135.425 209.038 135.182 209.088 134.934C209.17 134.641 209.252 134.33 209.334 133.96C209.95 131.229 208.123 129.322 205.357 128.093L206.53 121.819L210.023 122.303L208.577 117.463L208.762 112.453L186.938 109.587ZM194.656 137.195C194.08 137.358 193.569 137.693 193.189 138.155C193.346 137.896 193.56 137.675 193.814 137.509C194.067 137.343 194.355 137.236 194.656 137.195Z" fill="white"/>
<path d="M154.229 80.9137C154.101 80.812 153.965 80.7226 153.821 80.6467L154.229 80.9137Z" fill="white"/>
<path d="M170.107 91.3153L175.709 94.9819C175.035 92.2276 174.477 89.4292 170.107 91.3153Z" fill="white"/>
<path d="M181.362 98.6779L175.718 94.9819C176.366 97.5955 177.147 100.171 181.362 98.6779Z" fill="white"/>
<path d="M68.5547 159.627L77.4926 159.87L90.5312 160.213C83.2155 159.92 76.0259 159.58 68.5547 159.627Z" fill="white"/>
<path d="M26.4818 79.6404C23.5485 79.0156 23.9298 78.1503 22.2197 80.5498C19.873 83.841 15.9893 90.8428 15.9893 90.8428C16.1125 91.4295 18.1335 91.1626 18.7349 91.6202L26.4818 79.6404Z" fill="white"/>
<path d="M186.475 108.918L185.193 114.401L182.11 119.041L185.486 119.507L185.527 125.374C185.049 125.266 184.465 125.142 183.744 125.01C183.805 124.28 183.858 123.544 183.888 122.813C183.92 121.986 183.926 121.79 164.234 117.304C156.338 115.503 148.174 113.644 146.476 112.937C145.778 112.643 143.522 108.648 140.219 100.593C139.298 98.3493 138.424 96.0936 137.679 94.0667L137.151 94.3805L136.629 94.6944L133.452 96.5922L132.754 97.0088L132.056 97.4253L126.576 124.453L126.544 124.614L126.597 124.77C127.896 128.519 134.81 137.06 145.61 140.762L180.898 148.439V147.691C180.898 147.178 180.898 146.664 180.928 146.151C182.338 146.571 183.801 146.789 185.272 146.799L184.791 154.79L184.817 154.886C185.146 156.06 186.313 157.075 188.191 157.805C190.406 158.597 192.743 158.994 195.096 158.978C197.237 158.978 199.167 158.647 200.244 157.972L200.473 157.828L201.757 150.24C202.651 150.047 203.505 149.699 204.28 149.213C205.709 148.283 206.404 146.972 206.295 145.426C206.245 144.725 206.565 144.224 207.037 143.602C207.304 143.333 207.532 143.028 207.715 142.695C208.464 141.673 208.874 140.442 208.888 139.175C208.878 138.051 209.056 136.933 209.413 135.867L209.431 135.805C209.518 135.575 209.588 135.339 209.639 135.098C209.721 134.805 209.806 134.47 209.891 134.089C210.081 133.336 210.081 132.547 209.891 131.794C209.701 131.041 209.327 130.347 208.803 129.774C208.018 128.91 207.067 128.212 206.008 127.721L206.996 122.473L210.848 123.007L209.173 117.387L209.375 111.928L186.475 108.918ZM207.231 121.306L202.928 120.719L189.613 118.853L186.68 118.446L186.093 118.363L185.489 118.278L184.184 118.099L186.181 115.093L208.117 117.991L209.182 121.561L207.231 121.306ZM208.132 112.972L207.994 116.785L186.533 113.94L187.396 110.253L208.132 112.972ZM180.989 144.895C181.215 141.308 181.822 137.773 182.415 134.335C182.876 131.678 183.339 128.953 183.629 126.21C184.43 126.36 185.046 126.503 185.536 126.609V127.008C185.662 128.976 188.807 130.528 194.882 131.599C196.002 131.798 197.132 131.956 198.208 132.086C199.824 132.599 202.573 134.08 203.62 135.826C204.119 136.659 204.172 137.433 203.778 138.19C203.679 138.428 203.532 138.644 203.347 138.824C203.162 139.003 202.943 139.144 202.702 139.237C201.702 139.548 200.235 138.762 198.815 138.002C197.489 137.295 196.128 136.568 194.89 136.585V136.527C194.761 136.553 194.638 136.582 194.518 136.618C194.385 136.637 194.253 136.666 194.125 136.706C193.542 136.9 193.043 137.288 192.711 137.806C192.573 137.976 192.453 138.161 192.353 138.357C191.84 139.372 191.846 140.595 192.353 141.821C192.289 141.906 192.201 142.012 192.121 142.115C191.535 142.824 190.52 144.039 190.702 145.57C189.909 145.524 189.115 145.524 188.323 145.57C186.193 145.635 183.219 145.734 180.989 144.895ZM190.895 146.3C190.916 146.362 190.942 146.424 190.969 146.485H190.863L190.895 146.3ZM205.096 145.506C205.172 146.606 204.676 147.512 203.629 148.198C201.576 149.548 198.105 149.612 196.513 148.785C195.732 148.371 195.072 148.04 194.544 147.773C192.825 146.908 192.368 146.658 192.101 146.08C191.538 144.863 192.268 143.834 193.06 142.883L193.192 142.728C195.633 144.643 198.443 145.661 201.188 145.661C201.844 145.661 202.499 145.602 203.145 145.485C203.823 145.365 204.485 145.168 205.119 144.898C205.09 145.099 205.082 145.303 205.096 145.506ZM207.674 139.137C207.639 140.83 206.938 141.745 206.257 142.634L206.125 142.804C205.412 143.499 204.262 144.045 202.919 144.294C201.426 144.57 197.533 144.834 193.509 141.425C193.095 140.501 193.06 139.607 193.421 138.894C193.421 138.867 193.453 138.841 193.468 138.812H193.491C193.544 138.711 193.603 138.613 193.667 138.518C193.957 138.174 194.34 137.921 194.77 137.791C195.706 137.7 196.997 138.378 198.249 139.058C199.584 139.771 200.954 140.501 202.215 140.501C202.501 140.503 202.786 140.461 203.06 140.378C203.774 140.138 204.368 139.633 204.72 138.967V139.005C205.793 138.862 206.822 138.49 207.738 137.914C207.709 138.272 207.686 138.671 207.674 139.137ZM207.903 130.563C208.301 130.995 208.586 131.519 208.73 132.089C208.874 132.659 208.873 133.256 208.727 133.825C208.662 134.118 208.598 134.365 208.533 134.602C208.533 134.658 208.513 134.717 208.504 134.775C208.428 135.045 208.354 135.289 208.284 135.518C207.929 136.362 207.125 137.237 205.21 137.688C205.335 136.822 205.143 135.94 204.67 135.204C204.031 134.139 202.91 133.177 201.699 132.414C203.118 132.517 204.172 132.555 204.541 132.555H204.664L205.128 132.523L205.8 128.97C206.592 129.368 207.305 129.908 207.903 130.563Z" fill="black"/>
<path d="M173.571 321.599V321.514L172.691 318.431C172.752 318.094 172.691 317.481 172.081 316.328L172.054 316.24H172.034C171.919 316.02 171.787 315.783 171.632 315.522C170.863 314.231 163.738 303.005 150.568 306.094C139.744 308.634 136.749 304.768 134.766 302.21C134.359 301.631 133.886 301.102 133.355 300.635L94.1128 178.022C96.5457 177.967 98.974 177.783 101.387 177.47C101.405 180.808 101.42 183.976 101.42 187.053H102.622C102.622 183.92 102.622 180.697 102.59 177.294C104.767 176.964 106.906 176.421 108.976 175.672L103.197 193.891L104.344 194.252L116.55 155.696H117.468L117.647 155.517C117.773 155.391 117.832 155.332 120.228 145.52C121.542 140.155 123.522 131.901 125.508 123.048C127.706 113.27 129.422 105.002 130.656 98.2437L129.964 98.6573L129.272 99.0709L104.368 113.952C93.8077 119.818 85.8056 122.728 80.1824 122.728C77.7907 122.728 75.8244 122.203 74.2834 121.153C68.056 116.935 69.5402 105.313 70.9746 94.0607C71.5848 89.2823 72.148 84.7709 72.148 80.8871H73.3506C73.3506 84.8471 72.764 89.3938 72.1568 94.2133C70.7693 105.099 69.332 116.354 74.9464 120.156C79.7218 123.382 89.1437 121.021 103.755 112.907L129.043 97.7978L129.547 97.5045L129.594 97.4781L130.24 97.0938L130.929 96.6802L132.369 95.8207L133.067 95.4013L133.766 94.9847L136.2 93.5327L136.725 93.2189L137.25 92.9021L147.473 86.7949L143.299 79.1271L143.627 79.6581L143.968 79.4439L144.478 79.1213L144.619 79.0333L157.64 70.8199L157.684 70.7906C159.804 69.1953 161.829 67.4784 163.75 65.6485L170.652 67.1591H170.699L171.069 67.1885C171.902 67.2559 172.348 67.2882 172.477 67.2882C175.668 67.2882 176.223 64.3549 176.519 62.7826L180.543 33.7015C180.608 33.0386 180.684 32.4226 180.752 31.8506C181.045 29.4159 181.25 27.6589 180.297 26.465C179.631 25.6349 178.487 25.1743 176.589 24.9807L162.348 22.6575C159.394 22.2997 158.124 25.2418 157.869 26.8463C157.867 26.8629 157.867 26.8796 157.869 26.8962L155.402 42.5221C151.723 42.4927 146.602 44.5754 145.408 48.1981C144.15 52.0525 143.921 53.9855 143.909 57.9485L136.282 63.6802L136.15 63.7799L135.663 64.1437L135.308 64.4106L135.282 64.3607L131.686 66.7074L131.161 67.0535L130.633 67.3967L124.854 71.1749L124.308 71.5327L99.3752 87.8479C99.294 87.9365 99.1836 87.9927 99.0642 88.0063L95.773 88.7661L98.3925 87.053V87.0677L98.8853 86.7978C100.83 85.7213 102.039 84.9029 102.854 84.1285L130.342 66.153L130.862 65.8127L131.378 65.4754C130.155 61.0285 128.257 58.2389 125.696 57.1535C121.437 55.3466 116.479 58.6437 113.417 61.1957C113.49 60.9023 113.561 60.6237 113.634 60.3362C114.605 56.4671 115.526 52.7975 115.655 50.9789L116.101 50.8205C118.882 49.8349 127.339 46.837 127.221 40.7767C127.01 29.6711 123.654 21.3258 119.219 16.5738C123.217 13.2533 125.931 9.49861 125.156 5.62661C124.614 2.92207 122.947 1.26181 120.337 0.818872C113.936 -0.263528 102.496 6.49487 98.0786 13.9719C96.169 17.1986 95.2069 25.4295 98.3573 27.9258C98.1142 29.7599 97.9693 31.6056 97.9232 33.4551C97.7266 40.6594 97.2984 46.9162 96.8202 50.1898C95.5457 49.5149 94.1661 49.0606 92.74 48.8463C85.5181 47.7522 78.3666 52.6802 72.6994 62.3162C72.6642 62.2458 72.6232 62.1754 72.5821 62.1021C70.9101 59.2069 64.0754 53.8389 55.1083 53.8389H54.9645C48.5317 53.8799 39.2096 56.8749 31.3277 70.9167C30.9963 71.5034 28.9811 74.6421 26.2061 78.957C25.7104 78.8338 25.3261 78.7106 25.0093 78.6079C23.3989 78.0799 23.0352 78.3645 21.7299 80.1978C19.3832 83.4802 15.6227 90.2621 15.4643 90.5495L15.3557 90.7431L15.3997 90.9632C15.5552 91.717 16.4381 91.8079 17.2917 91.8959C17.4296 91.9106 17.6173 91.9282 17.7992 91.9546C11.3605 101.904 5.0568 111.658 3.97147 113.515C-1.1384 122.271 -0.246671 127.615 1.39893 130.557C3.36133 134.077 7.41813 136.063 12.8184 136.183L43.4072 136.867C40.4416 145.412 38.4792 151.938 38.532 154.174V154.76L42.4891 154.807C37.7576 174.49 47.0152 191.791 51.7936 200.514L20.3688 291.448C19.4595 293.401 17.1216 296.892 14.6488 300.588C11.0203 306.006 8.39786 310.013 7.50907 312.354C6.96769 312.344 6.43731 312.507 5.99546 312.82C4.34693 313.94 3.3056 316.927 3.76613 319.229C4.05946 320.714 4.93947 321.676 6.24774 321.94C7.09737 322.128 7.96048 322.248 8.82906 322.3C8.7528 322.887 8.82907 323.714 9.19867 324.92C9.59467 326.184 11.8621 326.627 16.7608 326.387C16.3355 328.032 16.488 329.32 17.2096 330.253C18.6909 332.136 22.0085 331.822 23.9915 331.634L24.5371 331.587C24.0941 333.585 24.3024 335.016 25.1619 335.949C26.6755 337.592 29.7379 337.011 31.7619 336.63C32.1403 336.559 32.5715 336.477 32.9 336.433C32.0757 338.487 32.6771 339.777 33.3605 340.499C34.8712 342.098 37.9776 342.23 39.0981 341.769C40.6469 341.13 41.213 341.05 41.4213 341.062C41.4153 341.236 41.3977 341.41 41.3685 341.581C41.2629 342.341 41.0752 343.617 42.3835 344.277C44.2843 345.242 46.056 345.72 47.6635 345.72C48.7545 345.732 49.8326 345.483 50.8082 344.995C51.7837 344.506 52.6284 343.791 53.272 342.91C53.8114 343.743 54.6524 344.335 55.6186 344.562C56.8316 344.85 58.099 344.815 59.2939 344.459C60.4888 344.103 61.5692 343.439 62.4269 342.535C63.8525 340.951 64.1693 338.833 63.3333 336.556C64.049 332.215 63.4653 328.692 61.5968 326.087C58.681 322.019 53.4069 321.18 50.5704 320.731C50.0414 320.665 49.5179 320.562 49.004 320.42C46.6368 317.651 44.3693 310.632 46.7013 303.548L46.8685 303.04L45.6277 302.454L73.0602 242.64L105.914 308.112C105.447 309.074 106.081 310.239 106.659 311.089C108.125 315.313 108.944 319.713 109.662 323.603C110.449 327.853 111.129 331.546 112.473 333.72C111.886 335.263 112.376 339.214 112.836 340.854C113.174 342.027 113.567 342.614 114.118 342.749C114.443 342.821 114.774 342.857 115.107 342.857C117.072 342.857 118.36 341.502 119.172 340.646C119.387 340.403 119.622 340.178 119.873 339.974C120.01 340.195 120.115 340.435 120.184 340.687C120.269 340.982 120.428 341.25 120.647 341.466C120.865 341.683 121.135 341.839 121.431 341.922C123.135 342.406 125.611 340.748 126.124 340.297C127.035 339.583 127.782 338.683 128.315 337.656L128.609 337.903C129.826 338.968 131.073 339.37 132.311 339.123C134.299 338.715 135.707 336.688 136.482 335.228C136.809 335.45 137.105 335.714 137.362 336.014C138.177 336.894 138.608 336.929 141.955 336.307C145.355 335.685 147.007 333.374 147.743 332.283C148.25 332.732 148.844 333.071 149.489 333.279C150.134 333.487 150.815 333.559 151.489 333.491C153.363 333.365 155.062 332.421 155.815 331.089C156.159 330.479 156.402 330.03 156.555 329.704C159.535 330.878 160.057 330.678 162.987 328.986C163.973 328.416 164.639 327.275 165.041 326.475C166.264 327.261 168.511 327.305 169.274 327.114C170.508 326.817 171.606 326.11 172.387 325.108C173.167 324.106 173.585 322.869 173.571 321.599ZM136.244 65.2261L136.731 64.8623L136.863 64.7626L145.126 58.5674V58.2741C145.126 54.2495 145.323 52.3898 146.564 48.5941C147.526 45.6607 152.014 43.7922 155.226 43.7453C155.434 43.7453 155.634 43.7453 155.83 43.7599C155.965 43.7599 156.097 43.7717 156.226 43.7951C156.094 44.0239 155.909 44.3114 155.692 44.6341C155.475 44.9567 155.194 45.3703 154.903 45.781C153.563 47.6789 151.797 50.0021 151.486 50.3775L150.122 52.029L152.149 51.3279C152.691 51.1402 153.093 50.6415 153.416 50.2426C153.527 50.1047 153.633 49.9727 153.709 49.8847C153.92 49.6765 154.138 49.433 154.358 49.1749C154.578 48.9167 154.859 48.5677 155.117 48.2274C155.375 47.8871 155.634 47.5293 155.898 47.1479C157.332 45.0946 158.857 42.4722 160.259 40.0698C161.82 37.4034 163.759 34.0829 164.366 33.8013C165.108 33.5461 166.082 33.3349 166.513 33.8013C167.035 34.3527 166.944 35.8751 166.317 37.8551C165.789 38.4682 165.082 39.8469 164.005 41.9618C162.723 44.4962 160.969 47.9663 159.99 48.5149L160.576 49.565C161.782 48.8903 163.202 46.2122 165.076 42.5045C165.463 41.7389 165.856 40.9615 166.211 40.2986L166.546 40.457L166.818 39.9554C169.373 35.2474 170.925 34.3469 171.77 34.4231C171.908 34.4167 172.046 34.4475 172.168 34.5126C172.29 34.5776 172.393 34.6744 172.465 34.7927C173.275 36.2594 170.849 41.073 169.825 43.1322C169.432 43.9154 169.142 44.4903 169.024 44.8277C167.602 47.6583 164.733 53.1114 164.146 53.6277C164.197 53.5918 164.255 53.5659 164.316 53.5514L164.589 54.7247C164.882 54.6573 165.155 54.5898 166.818 51.6037L166.358 53.0175L170.115 45.3351C171.268 42.9885 171.899 42.6511 172.025 42.6071C172.339 42.9005 172.708 44.8717 171.887 49.1719C170.934 54.1586 168.954 58.8373 163.38 64.3607C163.213 64.5279 163.043 64.6951 162.867 64.8623L162.339 65.3639C160.632 66.9459 158.846 68.4408 156.989 69.8431L144.053 77.989L144.023 78.0066L142.803 76.0266L137.154 66.9098L136.159 65.2994L136.244 65.2261ZM165.355 30.0261C165.167 30.3986 164.727 30.9735 164.337 31.0527C162.682 31.3901 163.433 29.4922 163.636 28.9055C164.369 26.7965 166.372 27.9874 165.355 30.0349V30.0261ZM165.443 325.219L165.237 324.656L164.674 324.858C164.416 324.949 164.337 325.134 164.199 325.445C163.955 325.988 163.319 327.431 162.398 327.956C159.679 329.525 159.555 329.599 156.945 328.569C156.913 328.45 156.846 328.343 156.752 328.263C156.658 328.182 156.542 328.133 156.42 328.12C156.275 328.107 156.13 328.145 156.011 328.228C155.892 328.31 155.805 328.432 155.766 328.572C155.479 329.238 155.15 329.884 154.78 330.508C154.228 331.482 152.879 332.203 151.418 332.303C150.072 332.394 148.913 331.934 148.236 331.039C148.174 330.956 148.093 330.89 148 330.845C147.907 330.801 147.805 330.78 147.702 330.784C147.318 330.784 147.115 331.077 146.822 331.532C146.15 332.523 144.754 334.585 141.756 335.134C138.758 335.682 138.647 335.615 138.268 335.201C137.777 334.651 137.191 334.193 136.538 333.849L136.265 333.699L135.971 333.834C135.819 333.912 135.701 334.045 135.643 334.207C134.622 336.325 133.317 337.689 132.061 337.944C131.211 338.12 130.301 337.8 129.392 336.996C128.779 336.463 128.468 336.196 128.028 336.281C127.588 336.366 127.441 336.688 127.292 337.011C126.828 337.935 126.164 338.744 125.347 339.378C124.619 339.988 122.689 341.033 121.751 340.763C121.643 340.737 121.546 340.68 121.469 340.601C121.392 340.522 121.339 340.422 121.316 340.314C121.094 339.628 120.777 338.909 120.128 338.759C119.48 338.61 118.905 339.167 118.289 339.815C117.383 340.772 116.254 341.954 114.42 341.575C113.795 340.968 113.226 336.694 113.396 334.858C113.408 334.635 113.453 334.414 113.528 334.204H113.567L114.235 334.013L171.218 317.733L171.368 318.247L171.553 318.88L171.732 319.502L172.368 321.693C172.359 322.678 172.021 323.631 171.408 324.401C170.796 325.172 169.943 325.716 168.986 325.947C167.977 326.211 165.654 325.812 165.443 325.228V325.219ZM125.843 302.275C125.799 295.672 125.793 287.67 125.843 281.19L132.05 300.582L125.843 302.275ZM124.643 302.6L122.343 303.228C119.158 302.143 114.79 302.421 111.114 302.659C109.865 302.738 108.677 302.814 107.635 302.832C106.641 299.189 106.688 291.961 106.782 284.217C108.642 284.34 110.557 284.51 112.458 284.666C116.148 284.983 119.964 285.308 123.129 285.308V284.106C120.014 284.106 116.383 283.795 112.569 283.469C110.642 283.305 108.694 283.138 106.805 283.014C106.899 275.147 106.981 267.066 105.999 261.924C108.345 262.006 110.692 262.067 113.197 262.067C115.25 262.067 117.395 262.026 119.697 261.93L124.702 277.564C124.587 284.587 124.587 294.66 124.64 302.609L124.643 302.6ZM55.5248 226.756C55.1669 223.016 54.8883 220.056 54.8149 218.956C56.7832 219.071 58.992 219.188 61.3533 219.305L70.5229 237.58C65.2429 237.322 60.5173 237.07 56.4635 236.829C56.1642 233.547 55.8474 230.156 55.5248 226.756ZM54.2664 183.436C54.2957 181.066 54.3221 178.648 54.3456 176.182C59.9658 176.235 66.0466 176.678 72.013 177.112L76.8032 177.455C76.8941 182.48 77.029 187.91 77.1992 193.111C77.2314 194.082 77.2666 195.108 77.3048 196.179C68.5986 195.712 59.517 196.29 54.1666 198.819C54.1432 193.668 54.2019 188.617 54.2664 183.436ZM54.3808 169.131C54.3808 167.77 54.4688 166.447 54.5568 165.168C54.6859 163.261 54.7915 161.68 54.5568 160.527C55.5041 160.606 56.4555 160.624 57.405 160.58C64.1517 160.16 70.4995 160.152 76.7973 160.307C76.7005 161.357 76.636 163.895 76.6917 170.351C76.7093 172.208 76.7357 174.188 76.768 176.247L72.0746 175.912C66.0877 175.475 59.9893 175.033 54.3309 174.977C54.3642 173.064 54.3808 171.116 54.3808 169.131ZM77.4133 160.457L77.4338 160.322H77.8709C77.8083 160.375 77.7353 160.415 77.6564 160.438C77.5776 160.461 77.4948 160.468 77.4133 160.457ZM78.4986 218.804C72.8784 218.601 67.1642 218.364 62.1189 218.123L54.68 203.333C54.5362 203.04 54.3866 202.732 54.1989 202.403C54.1989 201.658 54.1813 200.916 54.1755 200.177C59.1915 197.537 68.4755 196.95 77.3488 197.426C77.5981 204.087 77.9706 212.157 78.4869 218.804H78.4986ZM54.24 205.128L60.7256 218.056C58.5637 217.95 56.5485 217.842 54.7387 217.739C54.4805 213.351 54.325 209.179 54.24 205.128ZM62.7466 219.37C67.6717 219.604 73.1805 219.833 78.5866 220.027C79.0266 225.327 79.5693 229.551 80.2234 231.138C80.6312 232.124 80.8101 234.978 80.9333 238.064L78 237.932C75.8919 237.838 73.8552 237.74 71.8898 237.639L62.7466 219.37ZM102.288 225.104C102.429 229.211 102.599 234.057 102.816 238.912C97.357 238.736 90.1322 238.463 82.1389 238.117C82.0186 234.826 81.8162 231.842 81.3352 230.678C80.7925 229.361 80.2704 225.691 79.7981 220.068C88.2637 220.361 96.3832 220.561 101.561 220.561H102.127C102.176 221.936 102.232 223.485 102.288 225.104ZM80.9744 239.287C81.0037 240.273 81.0272 241.261 81.0507 242.2C81.1768 247.269 81.256 248.706 81.5786 249.181L82.576 248.504L82.5994 248.548C82.4 248.067 82.3237 244.934 82.2533 242.171C82.2298 241.241 82.2064 240.285 82.18 239.34C89.8741 239.677 97.2309 239.956 102.872 240.132C103.244 248.178 103.752 256.104 104.529 260.665L101.449 260.536C97.5184 260.366 93.4498 260.19 88.8533 260.19V261.393C93.4264 261.393 97.4773 261.569 101.396 261.736L104.755 261.877C105.77 266.863 105.688 275.009 105.594 282.941C101.396 282.703 97.5594 282.727 94.9106 283.498L72.5293 238.885C75.3336 239.032 78.1701 239.164 80.9744 239.287ZM105.758 260.721C104.978 256.28 104.456 248.301 104.077 240.17C107.503 240.27 110.19 240.328 111.786 240.328C112.185 240.328 112.514 240.328 112.769 240.328L119.307 260.759C114.268 260.953 109.973 260.876 105.758 260.721ZM104.022 238.95C103.802 234.072 103.634 229.199 103.491 225.063C103.429 223.303 103.376 221.802 103.329 220.552C104.69 220.537 105.743 220.499 106.409 220.44L112.39 239.135C111.1 239.143 108.143 239.079 104.022 238.95ZM106.034 219.267C105.4 219.314 104.467 219.34 103.282 219.352C103.165 216.381 103.086 215.114 102.989 214.779L101.842 215.14C101.915 215.433 102.001 217.052 102.091 219.358C96.9962 219.358 88.5394 219.153 79.7101 218.845C79.276 213.33 78.8888 206.114 78.569 197.484C85.0224 197.907 91.1178 198.875 95.0778 199.998L95.4064 198.842C91.2792 197.669 85.0605 196.675 78.5221 196.249C78.4928 195.425 78.4634 194.592 78.437 193.744C78.2405 187.904 78.1056 182.369 78.0205 177.535C82.5437 177.828 87.0317 178.068 91.288 178.068C91.816 178.068 92.3352 178.068 92.8544 178.068L106.034 219.267ZM93.7138 176.839L92.7781 173.906L91.6341 174.293L92.4613 176.875C87.8618 176.924 82.9485 176.675 77.9883 176.344C77.8475 167.863 77.868 161.765 77.9883 160.354C81.8016 160.46 85.6149 160.624 89.4869 160.791C93.3589 160.958 97.2954 161.126 101.338 161.237C101.305 166.112 101.338 171.248 101.355 176.285C98.8216 176.614 96.2714 176.799 93.7168 176.839H93.7138ZM109.428 174.199C107.224 175.099 104.92 175.733 102.567 176.088C102.54 171.119 102.517 166.059 102.549 161.258C105.113 161.319 107.718 161.36 110.372 161.36V160.158C107.732 160.158 105.122 160.116 102.558 160.052C102.558 158.512 102.59 157.001 102.616 155.529L115.291 155.681L109.428 174.199ZM12.8448 134.987C7.88747 134.878 4.1944 133.098 2.44907 129.974C0.307734 126.16 1.1936 120.669 5.00987 114.134C6.0864 112.291 12.4312 102.479 18.8875 92.4973L19.3685 91.7551L20.0989 90.6287C21.372 88.6575 22.6333 86.7127 23.8301 84.8589C24.1499 84.8589 24.4784 84.8735 24.8275 84.8735C27.3619 84.8735 30.6765 84.6741 34.1525 84.4629C37.74 84.2487 41.4507 84.0258 44.384 84.0258H46.0266C50.3621 84.0258 58.2645 84.0053 63.3333 84.3191L63.961 84.3602L64.3893 84.3925C62.157 90.3677 59.696 96.8885 57.2555 103.216C56.6688 104.75 56.0821 106.272 55.4955 107.771C52.2688 116.137 49.2152 123.828 47.0416 129.044L46.8363 129.091L46.4549 129.184L46.1763 129.249L46.0501 129.501V129.528C43.8619 133.928 43.5509 135.204 43.6213 135.688L12.8448 134.987ZM27.4587 79.2533C30.128 75.1114 32.0435 72.1194 32.3749 71.5269C39.9752 57.9895 48.8603 55.1002 54.9616 55.0621H55.12C63.4976 55.0621 70.0506 60.125 71.5466 62.7239C71.9133 63.3575 71.9074 63.7007 71.84 63.8063L71.7872 63.9178C71.7836 63.9329 71.7787 63.9476 71.7725 63.9618C71.3501 65.2173 70.8016 66.7925 70.1504 68.6229C68.7629 72.5066 66.9032 77.593 64.8 83.2045L64.3952 83.1722L63.7674 83.1253C58.7338 82.7879 50.7786 82.8026 46.0061 82.8114H44.384C41.4155 82.8114 37.6872 83.0343 34.0821 83.2514C30.4771 83.4685 27.1213 83.6738 24.6133 83.6533L26.96 79.9983L27.4528 79.2357L27.4587 79.2533ZM63.4594 127.26C59.5669 129.874 53.448 133.197 45.8594 134.726L45.4107 134.814L45.1173 134.869L44.9384 134.907C45.5446 133.329 46.23 131.782 46.9917 130.273H47.0357L47.1765 130.24L47.9069 130.059C56.9122 127.744 64.4362 123.042 69.2762 116.7C69.7932 118.106 70.3806 119.484 71.0362 120.83C70.3733 121.699 67.6922 124.427 63.4594 127.26ZM120.134 2.00687C122.241 2.36474 123.534 3.66421 123.977 5.86714C124.649 9.21994 122.097 12.6138 118.354 15.7202L117.864 16.1162C117.709 16.2423 117.547 16.3685 117.386 16.4917C112.141 20.5485 105.066 24.001 101.018 25.981L99.7829 26.5882L99.1288 26.9109L99.0554 26.949C98.8809 26.7995 98.7244 26.6302 98.589 26.4445C96.7176 23.8866 97.5888 17.1722 99.1141 14.5879C102.966 8.07007 112.783 1.90714 118.867 1.90714C119.292 1.90507 119.715 1.93843 120.134 2.00687ZM98.4805 46.0069C98.7738 42.5749 99.0026 38.0165 99.1258 33.505C99.1717 31.6819 99.3157 29.8625 99.557 28.0549C100.114 27.7615 100.783 27.4477 101.546 27.0751C105.984 24.9074 113.006 21.4783 118.266 17.3687C119.155 18.3212 119.955 19.3531 120.656 20.4517C123.003 24.0861 125.825 30.5687 126.019 40.8266C126.118 46.0186 118.278 48.7994 115.699 49.7117C114.728 50.0578 114.467 50.1487 114.467 50.6151C114.467 52.1053 113.449 56.1562 112.467 60.0693C112.25 60.9493 112.033 61.7941 111.83 62.6154C111.613 62.8149 111.414 62.9997 111.243 63.1581C110.994 63.3898 110.736 63.6303 110.657 63.6802C110.384 63.8679 109.216 63.7037 108.231 63.5335C108.199 63.4036 108.161 63.2754 108.116 63.1493C108.037 62.9439 107.929 62.6594 104.993 61.0549L104.491 60.7821L104.476 60.8055C103.538 56.5346 101.159 52.9823 97.9173 50.8586C98.108 49.7586 98.2957 48.2098 98.4805 45.9951V46.0069ZM101.487 76.6925C102.435 73.4658 103.452 70.0133 104.127 67.1533C104.177 66.9538 104.221 66.7573 104.265 66.5666C104.309 66.3759 104.359 66.1501 104.403 65.9477C104.535 65.3317 104.646 64.7538 104.731 64.2287C104.767 64.0205 104.796 63.821 104.819 63.6274C104.843 63.4338 104.869 63.2197 104.887 63.0407C104.904 62.8618 104.919 62.6007 104.922 62.4042C105.215 62.5743 105.526 62.7474 105.802 62.9146L106.274 63.2079C106.533 63.3601 106.784 63.5256 107.025 63.7037C107.051 63.7858 107.074 63.8738 107.096 63.9677C107.142 64.1756 107.176 64.3862 107.195 64.5983C107.258 65.4456 107.244 66.2967 107.154 67.1415C107.134 67.3439 107.113 67.5493 107.09 67.7605C107.066 67.9717 107.043 68.1565 107.016 68.3471C106.579 71.6413 105.55 75.6394 104.611 77.9274C104.259 78.7751 104.024 79.4762 103.79 80.0951C103.065 82.1191 102.746 83.0285 100.455 84.4951C100.082 84.7386 99.6597 84.9967 99.1728 85.2783C99.4573 83.5887 100.566 79.8223 101.487 76.6807V76.6925ZM17.412 90.6933C17.2389 90.6757 16.9984 90.6493 16.7989 90.617C17.7376 88.9509 20.7736 83.6063 22.7096 80.8901C23.1555 80.2623 23.5896 79.6903 23.8125 79.573C23.924 79.5202 24.1264 79.573 24.6368 79.7461C24.8744 79.8223 25.1648 79.9162 25.5168 80.0159L18.5032 90.8693C18.1451 90.78 17.78 90.7211 17.412 90.6933ZM43.7357 154.81L101.417 155.52C101.387 156.987 101.37 158.491 101.358 160.026C97.3306 159.911 93.4029 159.732 89.5514 159.58C78.8213 159.119 68.6866 158.682 57.3464 159.383C56.2573 159.431 55.1661 159.4 54.0816 159.289C53.9621 159.125 53.8165 158.981 53.6504 158.864C52.9992 158.409 52.0987 158.439 50.9107 158.94L50.456 158.884C48.5197 158.601 46.5688 158.43 44.6128 158.371V159.574C46.5197 159.633 48.4217 159.801 50.3093 160.078C51.3096 160.202 52.3245 160.325 53.3101 160.424C53.6035 161.39 53.4802 163.264 53.357 165.091C53.272 166.332 53.1781 167.731 53.1781 169.136C53.1781 171.119 53.1693 173.067 53.1517 174.98C49.8679 174.949 46.586 175.152 43.3309 175.587C42.1253 169.21 41.92 162.176 43.7357 154.819V154.81ZM43.5685 176.754C46.7425 176.337 49.9417 176.141 53.1429 176.168C53.1234 178.632 53.097 181.047 53.0637 183.413C52.9962 188.81 52.9346 194.07 52.9669 199.452C52.876 199.508 52.785 199.564 52.697 199.623C49.8752 194.472 45.6101 186.431 43.5685 176.763V176.754ZM52.5885 201.928L52.9963 202.685C53.0637 207.478 53.2221 212.412 53.5331 217.645C50.8021 217.478 48.6373 217.322 47.3115 217.184L52.5885 201.928ZM46.9096 218.355C48.2677 218.507 50.6085 218.68 53.6035 218.865V218.968C53.6709 220.05 53.9408 222.904 54.3162 226.85C54.5773 229.601 54.9029 233.045 55.2402 236.735C47.9274 236.286 42.9672 235.884 40.9549 235.562L46.9096 218.355ZM40.5648 236.712C42.6856 237.075 48.2237 237.51 55.3605 237.947C56.0469 245.573 56.7421 254.007 56.968 259.507C50.9546 258.679 42.7354 257.849 37.2589 257.764C36.8424 254.708 36.2763 252.411 35.5253 251.29L40.5648 236.712ZM34.9915 252.845C35.4315 253.945 35.7893 255.641 36.0739 257.764C35.1273 257.759 34.1812 257.808 33.2402 257.911L34.9915 252.845ZM32.7944 259.199C33.9275 259.012 35.0755 258.933 36.2235 258.961C36.86 264.534 37.0653 272.522 37.0008 280.374C32.328 280.011 27.3912 279.603 25.8541 279.301L32.7944 259.199ZM25.4611 280.421C26.6696 280.715 29.5677 280.987 36.9891 281.565C36.9157 287.652 36.681 293.574 36.3584 298.142L21.6917 291.342L25.4611 280.421ZM55.9677 343.382C55.2168 343.18 54.2752 342.69 54.0346 341.523L53.9114 340.918L53.3101 341.059C53.052 341.118 52.9405 341.291 52.788 341.528C50.6554 344.858 47.3467 345.415 42.9555 343.186C42.4744 342.939 42.4744 342.555 42.5888 341.719C42.6709 341.132 42.7619 340.478 42.2397 340.071C42.0072 339.903 41.725 339.82 41.4389 339.833C40.8522 339.833 39.9722 340.088 38.6698 340.625C38.0274 340.892 35.4226 340.866 34.2699 339.642C33.5776 338.912 33.5658 337.835 34.2317 336.442C34.3148 336.3 34.3544 336.136 34.3455 335.971C34.3367 335.806 34.2798 335.648 34.1819 335.515C33.7859 334.999 33.0085 335.148 31.5741 335.418C29.8141 335.75 27.1419 336.254 26.0829 335.104C25.4405 334.412 25.3789 333.101 25.8981 331.212C25.9268 331.108 25.93 330.999 25.9076 330.894C25.8851 330.789 25.8376 330.691 25.7691 330.608C25.4757 330.262 25.0504 330.314 23.9152 330.408C22.2901 330.561 19.2659 330.845 18.1923 329.478C17.6584 328.801 17.6056 327.718 18.0779 326.252L18.3096 326.202L18.2392 325.647C18.1659 325.087 17.6789 325.114 17.1656 325.143C10.7592 325.504 10.3955 324.583 10.3837 324.556C9.78239 322.638 10.1491 322.136 10.1432 322.136L10.5803 321.843L10.1197 320.907L9.62107 321.066C9.62107 321.066 8.96399 321.259 6.52346 320.772C5.70213 320.605 5.18293 320.01 4.98053 319.012C4.6168 317.199 5.45574 314.683 6.70533 313.835C6.8617 313.727 7.03671 313.648 7.2216 313.603C7.42027 313.558 7.62726 313.564 7.82293 313.621C7.9865 313.668 8.14182 313.74 8.28346 313.835C8.47119 313.955 8.66773 314.075 8.87013 314.196C10.2312 315.008 11.8973 315.797 13.6485 316.624C16.3413 317.898 19.3949 319.341 22.1552 321.247C23.8888 322.447 25.8013 323.911 27.8253 325.46C30.6531 327.624 33.7594 330 36.9626 332.08C40.4328 334.33 44.0203 336.228 47.5021 337.131C48.8416 337.493 50.2215 337.683 51.6088 337.698C51.9784 337.698 52.7059 337.744 53.5507 337.797C55.9853 337.956 57.9506 338.041 59.4584 338.006C60.793 337.973 61.7816 337.844 62.4386 337.583C62.8728 339.202 62.5794 340.631 61.5762 341.748C60.2357 343.189 57.8304 343.907 55.9531 343.397L55.9677 343.382ZM44.56 301.955L37.52 298.696C37.8632 294.085 38.1243 287.983 38.2035 281.683L39.1069 281.753C44.8768 282.196 50.8168 282.654 53.2133 283.055L44.56 301.955ZM53.7413 281.92C51.4621 281.489 45.4987 281.04 39.2096 280.547L38.2269 280.471C38.2973 272.695 38.0891 264.74 37.4173 258.984C42.7941 259.087 51.028 259.897 57.0178 260.744C57.0912 263.179 57.0442 264.851 56.8242 265.35L57.9213 265.846C58.1882 265.259 58.2704 263.499 58.2146 260.912C60.2034 261.205 61.8725 261.498 62.9989 261.748L53.7413 281.92ZM63.5034 260.618C62.3624 260.354 60.4762 260.032 58.1736 259.697C57.9888 254.532 57.361 246.703 56.5808 238.04C61.0218 238.307 66.0173 238.574 71.1565 238.83L72.3768 241.261L63.5034 260.618ZM95.4768 284.601C97.9672 283.933 101.605 283.924 105.597 284.152C105.497 292.331 105.447 299.954 106.632 303.633L107.219 303.448V304.035C108.392 304.035 109.771 303.947 111.226 303.853C114.039 303.674 117.28 303.466 119.967 303.876L106.946 307.42L95.4768 284.601Z" fill="black"/>
<path d="M195.369 107.522C195.902 102.855 194.544 99.068 191.646 97.132C190.483 96.3689 189.131 95.9428 187.74 95.9009C186.35 95.859 184.974 96.2028 183.767 96.8944C181.18 98.3347 179.306 98.8187 178.194 98.3347C177.038 97.8301 176.654 96.2813 176.246 94.6152C175.806 92.8317 175.351 90.9867 173.776 90.3267C172.403 89.7547 170.509 90.2328 167.807 91.8344C166.857 92.4006 166.147 92.6 165.698 92.4211C165.094 92.1894 164.774 91.1773 164.434 90.1037C163.812 88.1325 162.967 85.4339 159.403 86.1936C158.051 86.4869 157.124 86.4488 156.646 86.0968C156.167 85.7448 156.059 84.8824 155.965 83.9173C155.845 82.5856 155.695 80.9312 154.094 80.104L153.542 81.1717C154.487 81.6616 154.636 82.5768 154.768 84.0259C154.871 85.1757 154.979 86.3725 155.942 87.0648C156.731 87.6515 157.913 87.7424 159.664 87.3581C162.028 86.8536 162.597 88.2059 163.295 90.4557C163.706 91.7523 164.129 93.0957 165.278 93.5328C166.109 93.8496 167.112 93.6326 168.432 92.8493C170.711 91.4941 172.359 91.0131 173.319 91.4179C174.337 91.8432 174.7 93.3187 175.079 94.8821C175.519 96.6597 176.014 98.6749 177.719 99.4171C179.232 100.077 181.341 99.6019 184.354 97.927C185.368 97.3432 186.524 97.0515 187.693 97.0841C188.863 97.1168 190 97.4724 190.98 98.1118C193.491 99.7896 194.656 103.163 194.175 107.366L195.369 107.522Z" fill="black"/>
<path d="M200.229 106.929L201.432 106.903C201.335 102.65 199.672 96.5013 195.295 93.1661C192.731 91.2125 189.599 90.6259 186.237 91.4736L186.158 91.5C181.696 93.3128 180.878 91.7933 179.637 89.4965C178.364 87.1352 176.777 84.1989 170.714 84.9645L170.863 86.1584C176.114 85.4955 177.364 87.8216 178.578 90.0685C179.839 92.4152 181.142 94.8205 186.571 92.6293C189.59 91.8813 192.283 92.3829 194.568 94.1253C198.346 97 200.132 102.629 200.229 106.929Z" fill="black"/>
</svg>
